<?xml version="1.0" encoding="utf-8"?>
<!-- Generator: Adobe Illustrator 24.1.2, SVG Export Plug-In . SVG Version: 6.00 Build 0)  -->
<svg version="1.1" id="Слой_1" xmlns="http://www.w3.org/2000/svg" xmlns:xlink="http://www.w3.org/1999/xlink" x="0px" y="0px"
	 viewBox="0 0 1500 1500" style="enable-background:new 0 0 1500 1500;" xml:space="preserve">
<style type="text/css">
	.st0{fill:#2A5779;}
</style>
<path class="st0" d="M1452,773.3c-1.8,22.1-3.3,44.2-5.5,66.3c-17.5,172.9-72.6,330.4-190.7,461.6c-39.3,43.7-85.1,79.6-139.1,107.3
	c-26.8-43.3-53.6-86.5-80.4-129.8c0.9-1.3,1.4-2.8,2.4-3.3c83.7-40.9,139-109.2,180.4-189.8c57.5-111.9,80.3-231.6,77-356.8
	c-2.7-105.2-24.7-206-71.1-300.8c-37.7-77-87.8-143.8-162.9-188.7c-9.3-5.6-19.1-10.4-30.3-16.5c27.6-43.5,55-86.6,82.8-130.3
	c41.2,20.3,76.9,45.9,109.3,76.2c99.6,93.1,159.4,209.2,195.1,339c18.9,68.8,29.1,139,30.9,210.4c0.1,2.9,1.4,5.8,2.2,8.7
	C1452,742.2,1452,757.8,1452,773.3z"/>
<path class="st0" d="M957.5,1151.3c-26.4-42.6-52.7-85.1-79.2-128c74.3-77.4,106.5-170.9,105.5-276.2
	c-1-105.4-34.6-198.3-111.4-273.7c26.9-42.4,53.7-84.6,80.6-126.8C1201.5,533.6,1195.8,971.1,957.5,1151.3z"/>
<path class="st0" d="M688.6,1173c0-281.9,0-562.4,0-844h-75.5c-88.6,69.2-177.1,138.4-266,207.2c-6.2,4.8-15.4,8-23.2,8.1
	c-84.4,0.6-168.7,0.4-253.1,0.4c-5.3,0-10.6,0-16.2,0c0,138.2,0,274.4,0,411.9c6.5,0,12.3,0,18.2,0c82.1,0,164.2,0.2,246.3-0.3
	c12.1-0.1,21.5,3.1,31,10.6c87.5,68.9,175.4,137.4,263.2,206H688.6z"/>
</svg>
