<svg width="70" height="52" viewBox="0 0 70 52" fill="none" xmlns="http://www.w3.org/2000/svg">
<rect x="69" y="51" width="68" height="50" transform="rotate(-180 69 51)" fill="#D9D9D9"/>
<path fill-rule="evenodd" clip-rule="evenodd" d="M49.0001 25.9998C49.0001 25.7346 48.8947 25.4802 48.7072 25.2927C48.5196 25.1052 48.2653 24.9998 48.0001 24.9998L24.4141 24.9998L30.7081 18.7078C30.8011 18.6148 30.8748 18.5044 30.9251 18.383C30.9754 18.2615 31.0013 18.1313 31.0013 17.9998C31.0013 17.8683 30.9754 17.7381 30.9251 17.6166C30.8748 17.4952 30.8011 17.3848 30.7081 17.2918C30.6151 17.1988 30.5047 17.1251 30.3832 17.0748C30.2618 17.0244 30.1316 16.9985 30.0001 16.9985C29.8686 16.9985 29.7384 17.0244 29.6169 17.0748C29.4954 17.1251 29.3851 17.1988 29.2921 17.2918L21.2921 25.2918C21.199 25.3847 21.1251 25.495 21.0747 25.6165C21.0242 25.738 20.9983 25.8683 20.9983 25.9998C20.9983 26.1313 21.0242 26.2616 21.0747 26.3831C21.1251 26.5046 21.199 26.6149 21.2921 26.7078L29.2921 34.7078C29.3851 34.8008 29.4954 34.8745 29.6169 34.9248C29.7384 34.9752 29.8686 35.0011 30.0001 35.0011C30.1316 35.0011 30.2618 34.9752 30.3832 34.9248C30.5047 34.8745 30.6151 34.8008 30.7081 34.7078C30.8011 34.6148 30.8748 34.5044 30.9251 34.383C30.9754 34.2615 31.0013 34.1313 31.0013 33.9998C31.0013 33.8683 30.9754 33.7381 30.9251 33.6166C30.8748 33.4952 30.8011 33.3848 30.7081 33.2918L24.4141 26.9998L48.0001 26.9998C48.2653 26.9998 48.5196 26.8944 48.7072 26.7069C48.8947 26.5194 49.0001 26.265 49.0001 25.9998Z" fill="black"/>
<rect x="69.5" y="51.5" width="69" height="51" transform="rotate(-180 69.5 51.5)" stroke="black"/>
</svg>
