<svg width="70" height="52" viewBox="0 0 70 52" fill="none" xmlns="http://www.w3.org/2000/svg">
<rect x="1" y="1" width="68" height="50" fill="#D9D9D9"/>
<path fill-rule="evenodd" clip-rule="evenodd" d="M20.9999 25.9997C20.9999 26.2649 21.1053 26.5193 21.2928 26.7068C21.4804 26.8944 21.7347 26.9997 21.9999 26.9997L45.5859 26.9997L39.2919 33.2917C39.1989 33.3847 39.1252 33.4951 39.0749 33.6165C39.0246 33.738 38.9987 33.8682 38.9987 33.9997C38.9987 34.1312 39.0246 34.2614 39.0749 34.3829C39.1252 34.5044 39.1989 34.6147 39.2919 34.7077C39.3849 34.8007 39.4953 34.8744 39.6168 34.9248C39.7382 34.9751 39.8684 35.001 39.9999 35.001C40.1314 35.001 40.2616 34.9751 40.3831 34.9248C40.5046 34.8744 40.6149 34.8007 40.7079 34.7077L48.7079 26.7077C48.801 26.6148 48.8749 26.5045 48.9253 26.383C48.9758 26.2615 49.0017 26.1312 49.0017 25.9997C49.0017 25.8682 48.9758 25.7379 48.9253 25.6164C48.8749 25.495 48.801 25.3846 48.7079 25.2917L40.7079 17.2917C40.6149 17.1987 40.5046 17.125 40.3831 17.0747C40.2616 17.0243 40.1314 16.9985 39.9999 16.9985C39.8684 16.9985 39.7382 17.0243 39.6168 17.0747C39.4953 17.125 39.3849 17.1987 39.2919 17.2917C39.1989 17.3847 39.1252 17.4951 39.0749 17.6165C39.0246 17.738 38.9987 17.8682 38.9987 17.9997C38.9987 18.1312 39.0246 18.2614 39.0749 18.3829C39.1252 18.5044 39.1989 18.6147 39.2919 18.7077L45.5859 24.9997L21.9999 24.9997C21.7347 24.9997 21.4804 25.1051 21.2928 25.2926C21.1053 25.4801 20.9999 25.7345 20.9999 25.9997Z" fill="black"/>
<rect x="0.5" y="0.5" width="69" height="51" stroke="black"/>
</svg>
