<?xml version="1.0" encoding="utf-8"?>
<!-- Generator: Adobe Illustrator 26.0.2, SVG Export Plug-In . SVG Version: 6.00 Build 0)  -->
<svg version="1.2" baseProfile="tiny" id="Слой_1"
	 xmlns="http://www.w3.org/2000/svg" xmlns:xlink="http://www.w3.org/1999/xlink" x="0px" y="0px" viewBox="0 0 1500 1500"
	 overflow="visible" xml:space="preserve">
<path fill="#2A5779" d="M95,733.4c5.9-23.7,21.6-40.7,38.3-57.4c158.2-157.8,316-315.9,474.1-473.7c66.3-66.3,164.1-79,243.6-31.1
	c14.4,8.7,27.5,20.1,39.6,31.9c46.2,45.3,91.7,91.3,137.5,136.9c0.6,0.6,1.4,1,3.2,2.3c0.4-3.7,1.1-6.8,1.1-9.9
	c0.1-22.1-0.5-44.3,0.2-66.4c1.2-37,25.4-66.6,59.3-73.6c33.6-6.9,68.6,9.4,82.5,41c5.5,12.4,7.8,27.1,7.9,40.8
	c0.8,69.8,0.2,139.6,0.7,209.4c0,6.3,3.2,14.1,7.7,18.6c61.6,62.3,123.8,124.1,185.7,186.3c32.6,32.7,35,75.6,6.5,107.5
	c-25.6,28.7-70.1,32.8-100.4,9.1c-5.7-4.4-10.9-9.5-16-14.6c-159.5-159.4-319-318.9-478.5-478.4c-28.2-28.2-50-28.1-78.5,0.3
	C548.9,472.6,388.6,633,228.2,793.4c-29.7,29.7-64.9,35.5-97.2,16.2c-19.4-11.6-29.1-30.1-36-50.6C95,750.4,95,741.9,95,733.4z"/>
<path fill="#2A5779" d="M870.3,1359.1c0-111.5,0-221.5,0-332.3c-81.4,0-161.6,0-243.4,0c0,110.8,0,221.2,0,332.3
	c-4.8,0.3-8.1,0.7-11.3,0.7c-66.8,0-133.6,0.3-200.4-0.1c-72.1-0.4-126.2-46.5-137.6-116.7c-1.3-7.9-1.2-16.1-1.2-24.2
	c-0.1-101.3,0.1-202.5-0.3-303.8c-0.1-16.1,5.1-28.4,16.4-39.6c141.6-141.2,282.9-282.7,424.4-424c22.5-22.5,41.2-22.6,63.5-0.2
	c141.4,141.4,282.8,282.8,424.4,424c11.2,11.2,16.8,23.4,16.7,39.5c-0.4,103.4,0.1,206.8-0.4,310.2c-0.3,66.2-47,121.2-111.8,132.9
	c-8.3,1.5-16.9,1.8-25.4,1.9c-67.6,0.1-135.3,0.1-202.9,0.1C878,1359.8,875.1,1359.4,870.3,1359.1z"/>
</svg>
